<?xml version="1.0" standalone="no"?>
<!DOCTYPE svg PUBLIC "-//W3C//DTD SVG 1.1//EN" "http://www.w3.org/Graphics/SVG/1.1/DTD/svg11.dtd" >
<svg xmlns="http://www.w3.org/2000/svg" xmlns:xlink="http://www.w3.org/1999/xlink" version="1.1" viewBox="-30 -210 2570 2248">
  <g transform="matrix(1 0 0 -1 0 1638)">
   <path fill="currentColor"
d="M1250 1486q-199 0 -372 -100q-173 -98 -274 -270q-101 -173 -101 -375v-25l1 -26l-226 -15l-2 66q-5 128 29 248t99 233q130 227 353 359q225 132 491 132q248 0 465 -119l217 232l57 -641l-679 -23l244 261q-73 32 -148 47.5t-154 15.5zM1999 786l225 15l1 -33v-33
q0 -261 -133 -488q-132 -228 -354 -356q-221 -127 -486 -127q-238 0 -462 118l-218 -232l-57 642l679 22l-244 -261q73 -32 148.5 -47.5t153.5 -15.5q206 0 375 100q174 101 272 275q102 175 102 373v23z" />
  </g>

</svg>
